<?xml version="1.0" encoding="utf-8"?><svg viewBox="0 0 34 35" xmlns="http://www.w3.org/2000/svg" xmlns:xlink="http://www.w3.org/1999/xlink"><style>:root>svg{display:none}:root>svg:target{display:block}</style><svg fill="none" viewBox="0 0 12 16" id="geolocation" xmlns="http://www.w3.org/2000/svg"><path d="M11.736 5.829C11.736 2.6 9.12 0 5.868 0 2.618 0 0 2.6 0 5.829c0 3.228 5.868 9.257 5.868 9.257s5.868-6.029 5.868-9.257Zm-8.6-.115C3.135 4.23 4.371 3 5.867 3c1.496 0 2.733 1.2 2.733 2.714A2.722 2.722 0 0 1 5.868 8.43c-1.496 0-2.733-1.229-2.733-2.715Z" fill="#fff"/></svg><svg fill="none" viewBox="0 0 28 35" id="geolocation-mobile" xmlns="http://www.w3.org/2000/svg"><path d="M27.202 13.781c0-7.275-5.986-13.135-13.42-13.135C6.35.646.364 6.506.364 13.781c0 7.276 13.42 20.861 13.42 20.861s13.419-13.585 13.419-20.86Zm-19.669-.257c0-3.348 2.829-6.117 6.25-6.117 3.42 0 6.249 2.704 6.249 6.117 0 3.348-2.763 6.116-6.25 6.116-3.42 0-6.249-2.768-6.249-6.116Z" fill="#FBD846"/></svg><svg viewBox="0 0 32 32" id="hero1" xmlns="http://www.w3.org/2000/svg"><path d="M31.57 2.88h-5.918L18.356.5a3.102 3.102 0 0 0-2.643.34l-4.396 2.825a.429.429 0 1 0 .463.722l4.396-2.82a2.242 2.242 0 0 1 1.914-.243l7.363 2.395a.42.42 0 0 0 .133.021h5.556v7.21H27.95a.43.43 0 0 0-.381.232 4.317 4.317 0 0 1-2.091 1.802v-1.929c.688-.293 1.422-.804 1.89-1.694a.43.43 0 0 0-.76-.402c-.816 1.56-2.844 1.63-2.856 1.63-2.717 0-3.501-1.897-3.533-1.976a.43.43 0 0 0-.4-.275h-4.033a1.146 1.146 0 1 1 0-2.291H20.6a.43.43 0 1 0 0-.859h-4.813a2.004 2.004 0 1 0 0 4.009h3.764c.358.658 1.507 2.25 4.211 2.25a4.63 4.63 0 0 0 .858-.119v6.363a.634.634 0 0 1-.633.634H1.834a.635.635 0 0 1-.634-.632V6.68a.634.634 0 0 1 .633-.633h10.946a.43.43 0 1 0 0-.859H1.834A1.497 1.497 0 0 0 .342 6.68v11.013a1.497 1.497 0 0 0 1.492 1.492h22.152a1.497 1.497 0 0 0 1.492-1.492v-3.8c1.539-.49 2.4-1.6 2.715-2.086h3.377a.43.43 0 0 0 .43-.428V3.31a.43.43 0 0 0-.43-.43Z"/><path d="M3.252 14.447V9.922a2.3 2.3 0 0 0 1.824-1.824h7.331a.43.43 0 0 0 0-.859h-7.72a.43.43 0 0 0-.429.43 1.437 1.437 0 0 1-1.435 1.439.43.43 0 0 0-.427.426v5.302a.429.429 0 0 0 .43.43A1.437 1.437 0 0 1 4.261 16.7a.429.429 0 0 0 .43.429H21.13a.43.43 0 0 0 .43-.429 1.437 1.437 0 0 1 1.435-1.436.43.43 0 0 0 .43-.429v-1.94a.43.43 0 1 0-.86 0v1.551a2.301 2.301 0 0 0-1.824 1.824H5.076a2.301 2.301 0 0 0-1.824-1.824Z" fill="#FBD846"/><path d="M12.343 10.774h1.033a.43.43 0 0 0 0-.859h-.338V9.64a.43.43 0 1 0-.858 0v.287a1.347 1.347 0 0 0 .163 2.69h.531a.492.492 0 1 1 0 .984h-1.031a.43.43 0 1 0 0 .859h.337v.276a.43.43 0 0 0 .858 0v-.289a1.347 1.347 0 0 0-.164-2.69h-.531a.49.49 0 0 1-.36-.845.492.492 0 0 1 .36-.137ZM7.878 11.883a.431.431 0 0 0-.117.384.375.375 0 0 0 .025.08c.01.026.023.051.04.074a.394.394 0 0 0 .117.119.44.44 0 0 0 .543-.054.447.447 0 0 0 .093-.14.395.395 0 0 0 .032-.164.429.429 0 0 0-.733-.299ZM17.28 12.424a.426.426 0 0 0 .713 0 .368.368 0 0 0 .04-.075.387.387 0 0 0 .034-.162.43.43 0 1 0-.86 0 .455.455 0 0 0 .033.162c.011.026.024.051.04.075Z" fill="#FBD846"/><path d="M28.11 18.928a2.034 2.034 0 0 0-2.744.211l-2.715 2.935a.428.428 0 0 0 .011.62.43.43 0 0 0 .619-.037l2.715-2.935a1.17 1.17 0 0 1 1.876.23 1.166 1.166 0 0 1-.118 1.3l-4.727 5.78a2.165 2.165 0 0 1-1.37.775l-9.149 1.324a3.062 3.062 0 0 0-2.228 1.54l-.25.45H1.614l4.36-6.443A6.133 6.133 0 0 1 11.728 22a9.747 9.747 0 0 1 2.166.479c.476.17.978.258 1.484.26h4.376a1.267 1.267 0 0 1 1.265 1.265 1.367 1.367 0 0 1-1.366 1.365h-4.008c-.657 0-1.292.23-1.797.649l-.942.781a.43.43 0 0 0 .55.661l.94-.781c.35-.29.79-.45 1.244-.45h4.012a2.227 2.227 0 0 0 2.224-2.223 2.127 2.127 0 0 0-2.124-2.124h-4.374a3.601 3.601 0 0 1-1.197-.212 10.599 10.599 0 0 0-2.358-.524 6.99 6.99 0 0 0-6.562 3.049L.45 31.306a.43.43 0 0 0 .356.674h9.478a.43.43 0 0 0 .374-.225l.374-.673a2.202 2.202 0 0 1 1.602-1.107l9.15-1.319a3.023 3.023 0 0 0 1.913-1.08l4.726-5.781a2.02 2.02 0 0 0-.308-2.867h-.004Z"/></svg><svg fill="none" viewBox="0 0 33 33" id="hero2" xmlns="http://www.w3.org/2000/svg"><path d="M.342 32.627h32.194L.342.433v32.194Zm1-4.499H4.34v-1H1.341V24.13h2v-1h-2v-2.998h3v-1h-3v-2.999h2v-1h-2v-2.998h3v-1h-3v-8.29l28.782 28.782H1.34V28.13Z" fill="#333"/><path d="M6.84 14.427v13.701h13.7L6.84 14.427Zm.999 2.413 10.289 10.289H7.838V16.84Z" fill="#333"/><path d="m32.518 23.818-1.236-4.941L12.838.433 9.133 4.138l18.444 18.444 4.94 1.236Zm-1.375-1.375-3.055-.763L13.545 7.137l2.292-2.292L30.38 19.388l.764 3.055ZM12.838 1.846l2.292 2.292-2.292 2.292-2.292-2.292 2.292-2.292Z" fill="#FBD846"/></svg><svg fill="none" viewBox="0 0 32 33" id="hero3" xmlns="http://www.w3.org/2000/svg"><path d="M31.216 30.823H.649l.648.51V1.139l-.648.51h30.567l-.65-.51v30.194c0 .66 1.298.66 1.298 0V1.139c0-.279-.294-.51-.648-.51H.649C.294.629 0 .86 0 1.139v30.194c0 .279.294.51.649.51h30.567c.839 0 .839-1.02 0-1.02Z" fill="#333"/><path d="M15.35 1.127V31.51c0 .664 1.303.664 1.303 0V1.127c0-.664-1.303-.664-1.303 0Z" fill="#FBD846"/><path d="M.651 1.886h30.697c.843 0 .843-1.303 0-1.303H.651c-.842 0-.842 1.303 0 1.303Z" fill="#333"/><path d="M31.349 30.724H.65l.652.651V1.226l-.652.651h30.697l-.65-.651v30.149c0 .843 1.302.843 1.302 0V1.226a.656.656 0 0 0-.651-.652H.65A.656.656 0 0 0 0 1.226v30.149c0 .357.295.652.651.652h30.697c.843 0 .843-1.303 0-1.303Z" fill="#333"/><path d="M17.64 14.915v2.78c0 .843 1.304.843 1.304 0v-2.78c0-.833-1.303-.833-1.303 0ZM13.057 14.915v2.78c0 .843 1.303.843 1.303 0v-2.78c0-.833-1.303-.833-1.303 0Z" fill="#FBD846"/></svg><svg fill="none" viewBox="0 0 33 33" id="hero4" xmlns="http://www.w3.org/2000/svg"><path d="M18.767 16.755c0-.998-.687-1.83-1.61-2.07V9.242a.536.536 0 1 0-1.073 0v5.441a2.143 2.143 0 0 0-1.534 1.534h-3.832a.536.536 0 1 0 0 1.073h3.832a2.144 2.144 0 0 0 2.07 1.61 2.148 2.148 0 0 0 2.147-2.146Zm-2.146 1.073a1.074 1.074 0 0 1 0-2.147 1.074 1.074 0 0 1 0 2.147ZM16.62 6.023c.297 0 .537-.24.537-.537V4.95a.536.536 0 1 0-1.073 0v.536c0 .297.24.537.537.537ZM16.084 28.022v.537a.536.536 0 1 0 1.073 0v-.537a.536.536 0 1 0-1.073 0ZM28.425 17.29a.536.536 0 1 0 0-1.072h-.537a.536.536 0 1 0 0 1.073h.537ZM4.816 16.218a.536.536 0 1 0 0 1.073h.536a.536.536 0 1 0 0-1.073h-.536Z" fill="#000"/><path d="M24.587 9.323a.535.535 0 0 0 .38-.157l.38-.38a.536.536 0 1 0-.76-.759l-.379.38a.536.536 0 0 0 .38.916ZM8.273 24.343l-.38.38a.536.536 0 1 0 .76.758l.379-.38a.536.536 0 1 0-.759-.758ZM9.032 8.407l-.38-.38a.536.536 0 1 0-.758.76l.379.379a.535.535 0 0 0 .759 0 .536.536 0 0 0 0-.76Z" fill="#FBD846"/><path d="M16.62.723C7.745.723.523 7.943.523 16.82c0 8.876 7.222 16.097 16.098 16.097 1.918 0 3.798-.336 5.587-.998a.537.537 0 1 0-.372-1.006c-1.67.617-3.424.93-5.215.93-8.285 0-15.024-6.74-15.024-15.023 0-8.284 6.74-15.024 15.024-15.024 8.284 0 15.023 6.74 15.023 15.024 0 1.792-.313 3.546-.93 5.215a.537.537 0 0 0 1.006.372 16.04 16.04 0 0 0 .998-5.587C32.718 7.944 25.495.723 16.62.723Z" fill="#000"/><path d="M27.352 22.776v-.591a.536.536 0 1 0-1.073 0v.593c-.585.119-1.119.43-1.512.895-.328.387-.48.883-.426 1.397.055.525.325 1.012.742 1.336l1.196.93v2.918a1.607 1.607 0 0 1-1.073-1.511.536.536 0 1 0-1.073 0c0 1.295.923 2.38 2.146 2.629v.471a.536.536 0 1 0 1.073 0v-.473a2.678 2.678 0 0 0 1.513-.895c.328-.389.479-.884.425-1.398a1.957 1.957 0 0 0-.742-1.335l-1.196-.93v-2.919a1.608 1.608 0 0 1 1.073 1.511.536.536 0 1 0 1.073 0c0-1.295-.923-2.379-2.146-2.628Zm.537 5.813c.188.145.31.365.334.6.023.22-.04.43-.177.593-.187.22-.429.375-.694.47V28.17l.537.419Zm-2.147-3.03a.881.881 0 0 1-.334-.601.784.784 0 0 1 .178-.592c.187-.22.428-.375.693-.47v2.08l-.537-.417Z" fill="#FBD846"/></svg><svg fill="none" viewBox="0 0 28 34" id="hero5" xmlns="http://www.w3.org/2000/svg"><path d="M25.473 17.206v14.1c0 .664-.456 1.174-1.049 1.174H3.305c-.593 0-1.05-.51-1.05-1.174v-14.1" stroke="#333" stroke-width="1.5"/><path clip-rule="evenodd" d="M26.387 15.98c0 .664-.457 1.175-1.05 1.175H2.347c-.592 0-1.048-.511-1.048-1.175v-5.262c0-.664.456-1.175 1.049-1.175h22.99c.592 0 1.049.51 1.049 1.175v5.262Z" stroke="#333" stroke-width="1.5"/><path clip-rule="evenodd" d="M20.594 5.814c-1.003 1.124-5.565 4.393-6.614 3.27-1.003-1.125 1.916-6.284 2.92-7.408 1.003-1.124 2.645-1.124 3.694 0 1.004 1.124 1.004 3.014 0 4.138Z" stroke="#FBD846" stroke-width="1.5"/><path clip-rule="evenodd" d="M7.046 5.814c1.003 1.123 5.61 4.444 6.614 3.32 1.003-1.124-1.916-6.283-2.965-7.407-1.004-1.124-2.646-1.124-3.65 0-1.003 1.072-1.003 2.912 0 4.087Z" stroke="#FBD846" stroke-width="1.5"/><path d="M10.695 13.681s.684-2.35 3.33-3.525V32.43" stroke="#FBD846" stroke-width="1.5"/><path d="M13.842 10.207s1.049 4.087 4.698 4.7" stroke="#FBD846" stroke-width="1.5"/></svg><svg fill="none" viewBox="0 0 26 26" id="phone" xmlns="http://www.w3.org/2000/svg"><path d="m11.323 21.552 3.289-3.288 5.434 3.79-1.219 1.219a3.125 3.125 0 0 1-3.104.784c-3.364-1.005-6.386-2.847-9.065-5.526-2.68-2.68-4.522-5.702-5.527-9.066a3.125 3.125 0 0 1 .784-3.104l1.22-1.219 3.79 5.434-3.289 3.289m12.13.507.043-.62a4.291 4.291 0 0 0-4.757-4.565m8.518 5.635.078-1.121c.34-4.83-3.784-8.787-8.596-8.249m12.923 9.838.12-1.7C24.607 6.26 18.352.258 11.051 1.074" stroke="#fff" stroke-width="2"/></svg><svg fill="none" viewBox="0 0 34 35" id="phone-mobile" xmlns="http://www.w3.org/2000/svg"><path d="m15.04 29.486 4.472-4.472 7.391 5.155-1.658 1.657a4.25 4.25 0 0 1-4.222 1.068c-4.574-1.367-8.684-3.873-12.328-7.517-3.645-3.644-6.15-7.754-7.517-12.329a4.25 4.25 0 0 1 1.067-4.222l1.658-1.658 5.155 7.391-4.473 4.473m16.496.69.06-.844c.254-3.636-2.849-6.613-6.47-6.208m11.584 7.663.107-1.524c.46-6.57-5.146-11.95-11.691-11.219m17.575 13.38.163-2.313C33.108 8.69 24.6.527 14.67 1.637" stroke="#FBD846" stroke-width="2"/></svg></svg>