<?xml version="1.0" encoding="utf-8"?><svg viewBox="0 0 34 35" xmlns="http://www.w3.org/2000/svg" xmlns:xlink="http://www.w3.org/1999/xlink"><style>:root>svg{display:none}:root>svg:target{display:block}</style><svg fill="none" viewBox="0 0 12 16" id="geolocation" xmlns="http://www.w3.org/2000/svg"><path d="M11.736 5.829C11.736 2.6 9.12 0 5.868 0 2.618 0 0 2.6 0 5.829c0 3.228 5.868 9.257 5.868 9.257s5.868-6.029 5.868-9.257Zm-8.6-.115C3.135 4.23 4.371 3 5.867 3c1.496 0 2.733 1.2 2.733 2.714A2.722 2.722 0 0 1 5.868 8.43c-1.496 0-2.733-1.229-2.733-2.715Z" fill="#fff"/></svg><svg fill="none" viewBox="0 0 28 35" id="geolocation-mobile" xmlns="http://www.w3.org/2000/svg"><path d="M27.202 13.781c0-7.275-5.986-13.135-13.42-13.135C6.35.646.364 6.506.364 13.781c0 7.276 13.42 20.861 13.42 20.861s13.419-13.585 13.419-20.86Zm-19.669-.257c0-3.348 2.829-6.117 6.25-6.117 3.42 0 6.249 2.704 6.249 6.117 0 3.348-2.763 6.116-6.25 6.116-3.42 0-6.249-2.768-6.249-6.116Z" fill="#FBD846"/></svg><svg fill="none" viewBox="0 0 26 26" id="phone" xmlns="http://www.w3.org/2000/svg"><path d="m11.323 21.552 3.289-3.288 5.434 3.79-1.219 1.219a3.125 3.125 0 0 1-3.104.784c-3.364-1.005-6.386-2.847-9.065-5.526-2.68-2.68-4.522-5.702-5.527-9.066a3.125 3.125 0 0 1 .784-3.104l1.22-1.219 3.79 5.434-3.289 3.289m12.13.507.043-.62a4.291 4.291 0 0 0-4.757-4.565m8.518 5.635.078-1.121c.34-4.83-3.784-8.787-8.596-8.249m12.923 9.838.12-1.7C24.607 6.26 18.352.258 11.051 1.074" stroke="#fff" stroke-width="2"/></svg><svg fill="none" viewBox="0 0 34 35" id="phone-mobile" xmlns="http://www.w3.org/2000/svg"><path d="m15.04 29.486 4.472-4.472 7.391 5.155-1.658 1.657a4.25 4.25 0 0 1-4.222 1.068c-4.574-1.367-8.684-3.873-12.328-7.517-3.645-3.644-6.15-7.754-7.517-12.329a4.25 4.25 0 0 1 1.067-4.222l1.658-1.658 5.155 7.391-4.473 4.473m16.496.69.06-.844c.254-3.636-2.849-6.613-6.47-6.208m11.584 7.663.107-1.524c.46-6.57-5.146-11.95-11.691-11.219m17.575 13.38.163-2.313C33.108 8.69 24.6.527 14.67 1.637" stroke="#FBD846" stroke-width="2"/></svg></svg>